HIERARCHY
ROOT Hips
{
	OFFSET 0.000000 0.000000 0.000000
	CHANNELS 6 Xposition Yposition Zposition Xrotation Yrotation Zrotation
	JOINT Thigh.L
	{
		OFFSET 0.054128 0.030967 -0.092432
		CHANNELS 3 Xrotation Yrotation Zrotation
		JOINT Shin.L
		{
			OFFSET 0.053326 0.016455 -0.413154
			CHANNELS 3 Xrotation Yrotation Zrotation
			JOINT Foot.L
			{
				OFFSET -0.041126 0.033607 -0.432082
				CHANNELS 3 Xrotation Yrotation Zrotation
				JOINT Toe.L
				{
					OFFSET 0.044577 -0.118931 -0.063729
					CHANNELS 3 Xrotation Yrotation Zrotation
					End Site
					{
						OFFSET 0.000000 0.050000 0.000000
					}
				}
			}
		}
	}
	JOINT Thigh.R
	{
		OFFSET -0.059414 0.028387 -0.102775
		CHANNELS 3 Xrotation Yrotation Zrotation
		JOINT Shin.R
		{
			OFFSET -0.042707 0.021781 -0.396856
			CHANNELS 3 Xrotation Yrotation Zrotation
			JOINT Foot.R
			{
				OFFSET 0.015332 0.022142 -0.441027
				CHANNELS 3 Xrotation Yrotation Zrotation
				JOINT Toe.R
				{
					OFFSET -0.036943 -0.119673 -0.063737
					CHANNELS 3 Xrotation Yrotation Zrotation
					End Site
					{
						OFFSET 0.000000 0.050000 0.000000
					}
				}
			}
		}
	}
	JOINT Spine
	{
		OFFSET -0.001997 0.018700 0.109708
		CHANNELS 3 Xrotation Yrotation Zrotation
		JOINT Spine.2
		{
			OFFSET 0.006589 0.002470 0.135545
			CHANNELS 3 Xrotation Yrotation Zrotation
			JOINT Chest
			{
				OFFSET -0.010346 -0.022937 0.049681
				CHANNELS 3 Xrotation Yrotation Zrotation
				JOINT Neck
				{
					OFFSET -0.009284 0.028284 0.164457
					CHANNELS 3 Xrotation Yrotation Zrotation
					JOINT Head
					{
						OFFSET 0.022026 -0.023653 0.169119
						CHANNELS 3 Xrotation Yrotation Zrotation
						End Site
						{
							OFFSET 0.000000 0.050000 0.000000
						}
					}
				}
				JOINT Clavicle.L
				{
					OFFSET 0.043155 0.007951 0.084048
					CHANNELS 3 Xrotation Yrotation Zrotation
					JOINT UpperArm.L
					{
						OFFSET 0.105465 0.014774 0.061565
						CHANNELS 3 Xrotation Yrotation Zrotation
						JOINT ForeArm.L
						{
							OFFSET 0.262788 0.035124 -0.075310
							CHANNELS 3 Xrotation Yrotation Zrotation
							JOINT Hand.L
							{
								OFFSET 0.261026 0.006485 0.021088
								CHANNELS 3 Xrotation Yrotation Zrotation
								JOINT Thumb1.L
								{
									OFFSET 0.154574 0.002971 0.009660
									CHANNELS 3 Xrotation Yrotation Zrotation
									JOINT Thumb2.L
									{
										OFFSET 0.029893 0.000743 0.002415
										CHANNELS 3 Xrotation Yrotation Zrotation
										End Site
										{
											OFFSET 0.024911 0.000619 0.002013
										}
									}
								}
								JOINT Index1.L
								{
									OFFSET 0.137574 0.002971 0.009660
									CHANNELS 3 Xrotation Yrotation Zrotation
									JOINT Index2.L
									{
										OFFSET 0.029893 0.000743 0.002415
										CHANNELS 3 Xrotation Yrotation Zrotation
										JOINT Index3.L
										{
											OFFSET 0.021922 0.000545 0.001771
											CHANNELS 3 Xrotation Yrotation Zrotation
											End Site
											{
												OFFSET 0.017936 0.000446 0.001449
											}
										}
									}
								}
								JOINT Middle1.L
								{
									OFFSET 0.119574 0.002971 0.009660
									CHANNELS 3 Xrotation Yrotation Zrotation
									JOINT Middle2.L
									{
										OFFSET 0.030890 0.000767 0.002496
										CHANNELS 3 Xrotation Yrotation Zrotation
										JOINT Middle3.L
										{
											OFFSET 0.021922 0.000545 0.001771
											CHANNELS 3 Xrotation Yrotation Zrotation
											End Site
											{
												OFFSET 0.017936 0.000446 0.001449
											}
										}
									}
								}
								JOINT Ring1.L
								{
									OFFSET 0.101574 0.002971 0.009660
									CHANNELS 3 Xrotation Yrotation Zrotation
									JOINT Ring2.L
									{
										OFFSET 0.028897 0.000718 0.002335
										CHANNELS 3 Xrotation Yrotation Zrotation
										JOINT Ring3.L
										{
											OFFSET 0.019929 0.000495 0.001610
											CHANNELS 3 Xrotation Yrotation Zrotation
											End Site
											{
												OFFSET 0.016940 0.000421 0.001369
											}
										}
									}
								}
								JOINT Pinky1.L
								{
									OFFSET 0.085574 0.002971 0.009660
									CHANNELS 3 Xrotation Yrotation Zrotation
									JOINT Pinky2.L
									{
										OFFSET 0.023915 0.000594 0.001932
										CHANNELS 3 Xrotation Yrotation Zrotation
										JOINT Pinky3.L
										{
											OFFSET 0.016940 0.000421 0.001369
											CHANNELS 3 Xrotation Yrotation Zrotation
											End Site
											{
												OFFSET 0.013950 0.000347 0.001127
											}
										}
									}
								}
							}
						}
					}
				}
				JOINT Clavicle.R
				{
					OFFSET -0.041087 0.014090 0.083489
					CHANNELS 3 Xrotation Yrotation Zrotation
					JOINT UpperArm.R
					{
						OFFSET -0.091114 0.009691 0.057215
						CHANNELS 3 Xrotation Yrotation Zrotation
						JOINT ForeArm.R
						{
							OFFSET -0.278548 0.022602 -0.042677
							CHANNELS 3 Xrotation Yrotation Zrotation
							JOINT Hand.R
							{
								OFFSET -0.257833 0.018931 -0.003475
								CHANNELS 3 Xrotation Yrotation Zrotation
								JOINT Thumb1.R
								{
									OFFSET -0.154667 0.008786 -0.001613
									CHANNELS 3 Xrotation Yrotation Zrotation
									JOINT Thumb2.R
									{
										OFFSET -0.029917 0.002197 -0.000403
										CHANNELS 3 Xrotation Yrotation Zrotation
										End Site
										{
											OFFSET -0.024931 0.001830 -0.000336
										}
									}
								}
								JOINT Index1.R
								{
									OFFSET -0.137667 0.008786 -0.001613
									CHANNELS 3 Xrotation Yrotation Zrotation
									JOINT Index2.R
									{
										OFFSET -0.029917 0.002197 -0.000403
										CHANNELS 3 Xrotation Yrotation Zrotation
										JOINT Index3.R
										{
											OFFSET -0.021939 0.001611 -0.000296
											CHANNELS 3 Xrotation Yrotation Zrotation
											End Site
											{
												OFFSET -0.017950 0.001318 -0.000242
											}
										}
									}
								}
								JOINT Middle1.R
								{
									OFFSET -0.119667 0.008786 -0.001613
									CHANNELS 3 Xrotation Yrotation Zrotation
									JOINT Middle2.R
									{
										OFFSET -0.030914 0.002270 -0.000417
										CHANNELS 3 Xrotation Yrotation Zrotation
										JOINT Middle3.R
										{
											OFFSET -0.021939 0.001611 -0.000296
											CHANNELS 3 Xrotation Yrotation Zrotation
											End Site
											{
												OFFSET -0.017950 0.001318 -0.000242
											}
										}
									}
								}
								JOINT Ring1.R
								{
									OFFSET -0.101667 0.008786 -0.001613
									CHANNELS 3 Xrotation Yrotation Zrotation
									JOINT Ring2.R
									{
										OFFSET -0.028920 0.002123 -0.000390
										CHANNELS 3 Xrotation Yrotation Zrotation
										JOINT Ring3.R
										{
											OFFSET -0.019945 0.001464 -0.000269
											CHANNELS 3 Xrotation Yrotation Zrotation
											End Site
											{
												OFFSET -0.016953 0.001245 -0.000229
											}
										}
									}
								}
								JOINT Pinky1.R
								{
									OFFSET -0.085667 0.008786 -0.001613
									CHANNELS 3 Xrotation Yrotation Zrotation
									JOINT Pinky2.R
									{
										OFFSET -0.023933 0.001757 -0.000323
										CHANNELS 3 Xrotation Yrotation Zrotation
										JOINT Pinky3.R
										{
											OFFSET -0.016953 0.001245 -0.000229
											CHANNELS 3 Xrotation Yrotation Zrotation
											End Site
											{
												OFFSET -0.013961 0.001025 -0.000188
											}
										}
									}
								}
							}
						}
					}
				}
			}
		}
	}
}
MOTION
Frames: 8
Frame Time: 0.03333333
-0.053822 -0.173471 1.137956 -22.855587 39.700258 16.892996 -14.562975 -46.594181 6.493468 17.923370 -1.722505 -12.209621 -1.430315 16.378651 9.657090 -1.761557 -7.300103 -0.066675 -21.242226 43.265172 4.584008 23.579560 6.622331 2.983538 20.908515 -12.546168 -1.674541 3.161336 -4.374870 1.480511 23.890411 -9.266609 2.935227 7.992851 -13.576186 -7.514904 -8.453443 -14.249353 -2.328383 11.799039 -9.490100 -17.532423 -0.285240 -18.317307 -9.081727 3.849048 5.109516 -12.522934 -5.203627 26.188263 -38.100128 -9.695606 -17.184650 -110.142193 -14.924248 2.139708 -11.234059 0.000000 0.000000 0.000000 0.000000 0.000000 0.000000 0.000000 0.000000 0.000000 0.000000 0.000000 0.000000 0.000000 0.000000 0.000000 0.000000 0.000000 0.000000 0.000000 0.000000 0.000000 0.000000 0.000000 0.000000 0.000000 0.000000 0.000000 0.000000 0.000000 0.000000 0.000000 0.000000 0.000000 0.000000 0.000000 0.000000 0.000000 0.000000 0.000000 0.000000 0.000000 0.000000 9.854144 -10.816923 3.325157 0.279682 -34.485655 -8.062737 1.780524 -0.185894 31.579389 1.155050 -7.426471 -5.136375 0.000000 0.000000 0.000000 0.000000 0.000000 0.000000 0.000000 0.000000 0.000000 0.000000 0.000000 0.000000 0.000000 0.000000 0.000000 0.000000 0.000000 0.000000 0.000000 0.000000 0.000000 0.000000 0.000000 0.000000 0.000000 0.000000 0.000000 0.000000 0.000000 0.000000 0.000000 0.000000 0.000000 0.000000 0.000000 0.000000 0.000000 0.000000 0.000000 0.000000 0.000000 0.000000
-0.054443 -0.163070 1.139870 -22.445426 40.313647 16.700465 -14.223638 -47.254410 6.700866 17.260257 -1.847402 -12.361549 -1.459263 16.624488 9.624774 -1.792897 -7.532245 -0.126547 -22.885184 42.819185 5.366827 26.098270 6.223181 3.186970 18.702702 -11.899243 -2.006491 3.122876 -4.476596 1.502077 24.491179 -9.099753 2.678795 8.160879 -13.402642 -7.452769 -8.607936 -14.065379 -2.359275 12.008219 -9.660992 -16.689979 0.160933 -18.513706 -9.230732 4.002547 5.040235 -12.764060 -5.681316 25.936499 -37.692481 -9.861445 -17.599587 -110.323852 -14.774295 2.603175 -11.151888 0.000000 0.000000 0.000000 0.000000 0.000000 0.000000 0.000000 0.000000 0.000000 0.000000 0.000000 0.000000 0.000000 0.000000 0.000000 0.000000 0.000000 0.000000 0.000000 0.000000 0.000000 0.000000 0.000000 0.000000 0.000000 0.000000 0.000000 0.000000 0.000000 0.000000 0.000000 0.000000 0.000000 0.000000 0.000000 0.000000 0.000000 0.000000 0.000000 0.000000 0.000000 0.000000 10.037399 -10.891507 3.574938 0.509077 -34.857269 -8.143230 3.238626 0.069825 33.186455 0.683027 -7.760156 -4.687071 0.000000 0.000000 0.000000 0.000000 0.000000 0.000000 0.000000 0.000000 0.000000 0.000000 0.000000 0.000000 0.000000 0.000000 0.000000 0.000000 0.000000 0.000000 0.000000 0.000000 0.000000 0.000000 0.000000 0.000000 0.000000 0.000000 0.000000 0.000000 0.000000 0.000000 0.000000 0.000000 0.000000 0.000000 0.000000 0.000000 0.000000 0.000000 0.000000 0.000000 0.000000 0.000000
-0.052007 -0.150778 1.140207 -22.025827 40.521254 16.441665 -13.829441 -47.705568 6.885542 17.144160 -1.879422 -12.878897 -1.629695 16.646929 9.795279 -1.994820 -8.016905 -0.214032 -25.663700 42.337233 6.796829 30.899455 5.850151 3.469445 16.006038 -10.334741 -2.912097 3.001032 -4.710368 1.480993 25.067214 -8.912723 2.412170 8.215781 -13.192078 -7.341859 -8.589386 -13.664722 -2.376633 12.055785 -9.942731 -15.996603 0.311824 -18.848364 -9.428585 4.055160 4.879830 -12.699862 -5.811473 26.142561 -37.316612 -9.969148 -17.967053 -110.416049 -14.661305 2.796903 -10.880209 0.000000 0.000000 0.000000 0.000000 0.000000 0.000000 0.000000 0.000000 0.000000 0.000000 0.000000 0.000000 0.000000 0.000000 0.000000 0.000000 0.000000 0.000000 0.000000 0.000000 0.000000 0.000000 0.000000 0.000000 0.000000 0.000000 0.000000 0.000000 0.000000 0.000000 0.000000 0.000000 0.000000 0.000000 0.000000 0.000000 0.000000 0.000000 0.000000 0.000000 0.000000 0.000000 9.912010 -10.892300 3.795894 0.831303 -35.690300 -8.035879 3.978973 0.752755 34.460734 0.067944 -7.623510 -4.438096 0.000000 0.000000 0.000000 0.000000 0.000000 0.000000 0.000000 0.000000 0.000000 0.000000 0.000000 0.000000 0.000000 0.000000 0.000000 0.000000 0.000000 0.000000 0.000000 0.000000 0.000000 0.000000 0.000000 0.000000 0.000000 0.000000 0.000000 0.000000 0.000000 0.000000 0.000000 0.000000 0.000000 0.000000 0.000000 0.000000 0.000000 0.000000 0.000000 0.000000 0.000000 0.000000
-0.052917 -0.136696 1.140054 -21.554010 40.636620 15.941728 -12.915560 -47.904547 7.301293 17.124319 -1.785001 -13.404981 -2.082847 16.343130 10.190396 -2.254440 -8.556374 -0.365858 -29.477134 41.799370 8.787674 37.542828 5.600305 4.099555 12.547389 -8.483703 -4.138269 2.870666 -4.983136 1.526730 25.601773 -8.608918 2.022985 8.229166 -13.021139 -7.102551 -8.437620 -13.156358 -2.468790 11.831437 -10.112528 -15.438446 0.894660 -19.072732 -9.517387 4.215613 4.860239 -12.716753 -5.712519 26.257397 -36.655748 -9.837259 -18.167347 -110.736557 -14.923519 2.782071 -10.415569 0.000000 0.000000 0.000000 0.000000 0.000000 0.000000 0.000000 0.000000 0.000000 0.000000 0.000000 0.000000 0.000000 0.000000 0.000000 0.000000 0.000000 0.000000 0.000000 0.000000 0.000000 0.000000 0.000000 0.000000 0.000000 0.000000 0.000000 0.000000 0.000000 0.000000 0.000000 0.000000 0.000000 0.000000 0.000000 0.000000 0.000000 0.000000 0.000000 0.000000 0.000000 0.000000 9.618745 -11.045898 3.986979 1.382588 -36.279515 -7.860387 4.464357 1.458808 36.167751 -0.216186 -7.451588 -4.312683 0.000000 0.000000 0.000000 0.000000 0.000000 0.000000 0.000000 0.000000 0.000000 0.000000 0.000000 0.000000 0.000000 0.000000 0.000000 0.000000 0.000000 0.000000 0.000000 0.000000 0.000000 0.000000 0.000000 0.000000 0.000000 0.000000 0.000000 0.000000 0.000000 0.000000 0.000000 0.000000 0.000000 0.000000 0.000000 0.000000 0.000000 0.000000 0.000000 0.000000 0.000000 0.000000
-0.059160 -0.119507 1.141366 -21.200388 41.105159 15.420916 -11.315661 -48.360667 8.328572 16.873251 -1.632475 -13.075772 -2.913996 16.156050 10.406309 -2.773991 -9.369278 -0.566248 -34.306271 40.858097 11.124092 47.395142 4.668201 4.567349 8.846777 -5.667077 -5.104044 2.652918 -5.415116 1.606428 26.282961 -9.033807 1.316603 8.413317 -12.818406 -6.731656 -8.439013 -12.492347 -2.477476 12.399459 -10.258458 -14.400373 2.296337 -19.066719 -9.550057 4.788973 5.382100 -12.586631 -6.060132 26.657720 -35.427051 -9.832732 -18.366347 -110.985661 -14.853721 2.797904 -10.378171 0.000000 0.000000 0.000000 0.000000 0.000000 0.000000 0.000000 0.000000 0.000000 0.000000 0.000000 0.000000 0.000000 0.000000 0.000000 0.000000 0.000000 0.000000 0.000000 0.000000 0.000000 0.000000 0.000000 0.000000 0.000000 0.000000 0.000000 0.000000 0.000000 0.000000 0.000000 0.000000 0.000000 0.000000 0.000000 0.000000 0.000000 0.000000 0.000000 0.000000 0.000000 0.000000 9.366015 -11.226827 4.209617 1.185591 -36.284348 -7.988541 5.550112 2.302339 38.102318 -0.187561 -7.304462 -3.403457 0.000000 0.000000 0.000000 0.000000 0.000000 0.000000 0.000000 0.000000 0.000000 0.000000 0.000000 0.000000 0.000000 0.000000 0.000000 0.000000 0.000000 0.000000 0.000000 0.000000 0.000000 0.000000 0.000000 0.000000 0.000000 0.000000 0.000000 0.000000 0.000000 0.000000 0.000000 0.000000 0.000000 0.000000 0.000000 0.000000 0.000000 0.000000 0.000000 0.000000 0.000000 0.000000
-0.068880 -0.105303 1.141608 -20.936241 41.276360 15.128983 -10.112329 -48.284457 9.036547 17.110156 -1.302779 -13.461309 -3.643828 15.670306 10.879858 -3.438756 -10.597823 -0.827643 -41.046390 39.850223 14.195465 61.172921 3.977837 5.958841 5.186687 -2.645964 -5.597528 2.442865 -6.043567 1.727602 26.952721 -9.227504 0.572540 8.379374 -12.756932 -6.297857 -8.313071 -11.534164 -2.580417 12.128018 -10.472252 -13.748094 2.925230 -18.821108 -10.335511 4.931877 5.420660 -12.530544 -6.026686 27.103354 -34.676643 -9.394772 -18.780769 -110.450294 -14.389544 2.308377 -10.245026 0.000000 0.000000 0.000000 0.000000 0.000000 0.000000 0.000000 0.000000 0.000000 0.000000 0.000000 0.000000 0.000000 0.000000 0.000000 0.000000 0.000000 0.000000 0.000000 0.000000 0.000000 0.000000 0.000000 0.000000 0.000000 0.000000 0.000000 0.000000 0.000000 0.000000 0.000000 0.000000 0.000000 0.000000 0.000000 0.000000 0.000000 0.000000 0.000000 0.000000 0.000000 0.000000 8.731755 -11.526304 4.249001 1.406345 -36.469858 -7.821051 6.089800 3.164067 39.589844 -0.588239 -7.079785 -2.572093 0.000000 0.000000 0.000000 0.000000 0.000000 0.000000 0.000000 0.000000 0.000000 0.000000 0.000000 0.000000 0.000000 0.000000 0.000000 0.000000 0.000000 0.000000 0.000000 0.000000 0.000000 0.000000 0.000000 0.000000 0.000000 0.000000 0.000000 0.000000 0.000000 0.000000 0.000000 0.000000 0.000000 0.000000 0.000000 0.000000 0.000000 0.000000 0.000000 0.000000 0.000000 0.000000
-0.069662 -0.082050 1.139913 -19.843907 41.268091 14.322764 -9.000784 -48.420898 9.809933 17.109981 -0.880291 -13.410172 -4.159129 15.186491 10.879881 -4.144828 -11.551262 -1.076930 -47.895166 38.815739 16.694744 75.762393 2.713750 7.910023 2.001313 -0.360396 -4.824792 2.329537 -6.664299 1.850492 27.593419 -9.405529 -0.196020 7.808511 -12.821768 -5.768505 -8.193083 -10.635733 -2.494342 12.412304 -10.870629 -12.768733 3.067458 -18.439735 -11.525417 5.200714 5.716273 -11.605619 -5.774667 27.515762 -33.445600 -9.007179 -18.621098 -110.661845 -13.782614 0.854479 -10.635360 0.000000 0.000000 0.000000 0.000000 0.000000 0.000000 0.000000 0.000000 0.000000 0.000000 0.000000 0.000000 0.000000 0.000000 0.000000 0.000000 0.000000 0.000000 0.000000 0.000000 0.000000 0.000000 0.000000 0.000000 0.000000 0.000000 0.000000 0.000000 0.000000 0.000000 0.000000 0.000000 0.000000 0.000000 0.000000 0.000000 0.000000 0.000000 0.000000 0.000000 0.000000 0.000000 8.166694 -11.772647 4.152587 1.161106 -36.234544 -7.490889 6.736635 3.509363 40.048488 -0.593218 -6.233516 -1.382458 0.000000 0.000000 0.000000 0.000000 0.000000 0.000000 0.000000 0.000000 0.000000 0.000000 0.000000 0.000000 0.000000 0.000000 0.000000 0.000000 0.000000 0.000000 0.000000 0.000000 0.000000 0.000000 0.000000 0.000000 0.000000 0.000000 0.000000 0.000000 0.000000 0.000000 0.000000 0.000000 0.000000 0.000000 0.000000 0.000000 0.000000 0.000000 0.000000 0.000000 0.000000 0.000000
-0.069771 -0.076291 1.139543 -20.026980 41.037896 14.526477 -8.205461 -48.230354 9.997865 17.149725 -0.805605 -14.079494 -3.840979 14.674066 11.004440 -4.995905 -12.397070 -1.360398 -53.641757 37.978219 19.028295 89.453096 2.081850 9.593555 -0.456722 2.122301 -4.347520 2.268299 -7.550005 1.875191 28.489335 -9.615842 -0.824916 7.659284 -13.080778 -5.528684 -8.317368 -9.764508 -2.486116 12.665518 -10.911045 -12.074757 3.173294 -18.240994 -12.057471 5.329338 5.928379 -11.366762 -5.760623 28.440364 -32.339031 -8.797158 -19.325291 -109.809478 -13.113360 -0.811317 -10.846455 0.000000 0.000000 0.000000 0.000000 0.000000 0.000000 0.000000 0.000000 0.000000 0.000000 0.000000 0.000000 0.000000 0.000000 0.000000 0.000000 0.000000 0.000000 0.000000 0.000000 0.000000 0.000000 0.000000 0.000000 0.000000 0.000000 0.000000 0.000000 0.000000 0.000000 0.000000 0.000000 0.000000 0.000000 0.000000 0.000000 0.000000 0.000000 0.000000 0.000000 0.000000 0.000000 7.833944 -11.995911 4.133748 0.913539 -36.406469 -7.646086 6.736760 4.154737 40.892258 -0.244083 -5.337439 -0.724874 0.000000 0.000000 0.000000 0.000000 0.000000 0.000000 0.000000 0.000000 0.000000 0.000000 0.000000 0.000000 0.000000 0.000000 0.000000 0.000000 0.000000 0.000000 0.000000 0.000000 0.000000 0.000000 0.000000 0.000000 0.000000 0.000000 0.000000 0.000000 0.000000 0.000000 0.000000 0.000000 0.000000 0.000000 0.000000 0.000000 0.000000 0.000000 0.000000 0.000000 0.000000 0.000000
